<svg version="1.2" xmlns="http://www.w3.org/2000/svg" viewBox="0 0 260 42" width="260" height="42"><style>.a{fill:#8ec23f}</style><path fill-rule="evenodd" class="a" d="m3.5 0.2h-1.3q-0.5 0-0.9 0.2-0.4 0.1-0.7 0.4-0.3 0.3-0.4 0.7-0.2 0.4-0.2 0.9v37.4q0 0.5 0.2 0.9 0.1 0.4 0.4 0.7 0.3 0.3 0.7 0.4 0.4 0.2 0.9 0.2h1.3q0.5 0 0.9-0.2 0.4-0.1 0.7-0.4 0.3-0.3 0.4-0.7 0.2-0.4 0.2-0.9v-37.4q0-0.5-0.2-0.9-0.1-0.4-0.4-0.7-0.3-0.3-0.7-0.4-0.4-0.2-0.9-0.2z"/><path fill-rule="evenodd" class="a" d="m241.2 6h6.8q0.4 0 0.8-0.2 0.4-0.1 0.7-0.4 0.3-0.3 0.5-0.7 0.2-0.4 0.2-0.9v-1.4q0-0.5-0.2-0.9-0.2-0.4-0.5-0.7-0.3-0.3-0.7-0.4-0.4-0.2-0.8-0.2c-5.9 0-15.9-2-23.8 12.5l-12.7-12.1c-0.6-0.5-1.8-0.4-2.9-0.4-1.1 0-1.4 0.8-1.4 1.9 0 3-1.7 0.6 14.6 16.1-1.6 4.2-4.4 17.8-18.7 18.2-1.3 0-1.4-1.6-1.4-1.6v-32.4q0-0.5-0.2-0.9-0.1-0.4-0.4-0.7-0.3-0.3-0.7-0.4-0.4-0.2-0.9-0.2h-5.2c-2.4 0.1-4.9 0.5-7.2 1.3-2.2 0.8-4.4 1.9-6.3 3.4-2 1.5-3.7 3.2-5.1 5.2-1.3 2-2.4 4.2-3.1 6.6-1.7 6.2-4.6 12.5-8.9 16.3q-0.2 0.1-0.3 0.2-0.2 0.2-0.4 0.3-0.2 0.1-0.3 0.2-0.2 0.2-0.3 0.3-1 0.9-2.2 1.4-1.3 0.5-2.6 0.7-1.3 0.1-2.6-0.2-1.3-0.2-2.4-0.9l0.1 0.1c-6-3.2-9.9-10.9-12-18.5-0.7-2.3-1.8-4.5-3.2-6.5-1.3-2-3-3.8-5-5.3-1.9-1.5-4.1-2.7-6.4-3.5-2.3-0.8-4.7-1.2-7.1-1.3h-9.7c0 0-18.2-0.9-21.7 17.6 0 0 4.2-11.8 21.6-11.8h9.4c14.2 0.4 17.1 13.9 18.6 17.8 8.9 24.3 30 24.4 39 0 1.4-3.9 4.3-17.5 18.6-17.8q0.3 0 0.5 0.1 0.2 0.1 0.3 0.3 0.2 0.1 0.3 0.4 0.1 0.2 0.1 0.4v32.8q0 0.5 0.2 0.9 0.1 0.4 0.4 0.7 0.3 0.3 0.7 0.4 0.4 0.2 0.9 0.2h5.3c2.4 0 4.8-0.5 7.1-1.3 2.3-0.8 4.5-1.9 6.4-3.4 1.9-1.5 3.6-3.2 5-5.2 1.4-2 2.5-4.2 3.2-6.6 0.2-1 0.6-2 1-3.1 22.2 21.4 19.7 19.7 22.4 19.5q0.3 0 0.6-0.1 0.3-0.1 0.5-0.3 0.2-0.2 0.3-0.5 0.1-0.2 0.1-0.5c0-4 2.5-0.6-21.6-23.7 3-6 7.5-10.8 12.7-10.8"/><path fill-rule="evenodd" class="a" d="m113.2 36.2c-7.3 0-13.9 0.6-18.8-2.8-4.5-3.8-7.5-10.3-9.3-16.7-2.8-10.3-12.7-16.5-21.6-16.5h-5.4q-0.4 0-0.8 0.2-0.4 0.2-0.7 0.5-0.3 0.3-0.4 0.7-0.2 0.3-0.2 0.8v32.6q0 0.3-0.1 0.5-0.1 0.3-0.3 0.4-0.2 0.2-0.4 0.3-0.3 0-0.5 0c-7.7-2-12.3-10.9-14.7-19.5-2.9-10.3-12.8-16.5-21.7-16.5h-5.3q-0.4 0-0.8 0.2-0.4 0.1-0.8 0.4-0.3 0.3-0.4 0.7-0.2 0.4-0.2 0.9v37.4q0 0.5 0.2 0.9 0.1 0.4 0.4 0.7 0.4 0.3 0.8 0.4 0.4 0.2 0.8 0.2h1.4q0.4 0 0.8-0.2 0.4-0.1 0.7-0.4 0.3-0.3 0.5-0.7 0.1-0.4 0.1-0.9v-33q0.1-0.2 0.2-0.4 0.1-0.2 0.3-0.3 0.2-0.2 0.4-0.2 0.3-0.1 0.5-0.1c14.2 0.4 17.1 13.9 18.5 17.8 7.1 19.1 19.6 18.4 19.6 18.4h3.5q0.5 0 0.9-0.2 0.4-0.1 0.7-0.4 0.3-0.3 0.4-0.7 0.2-0.4 0.2-0.9v-34c12.2-0.4 16.9 7.8 20 18.5 3.7 12.7 14.6 17.9 19.4 17.7h12c0 0 18.3 0.9 21.8-17.6 0 0-4.2 11.8-21.7 11.8"/><path fill-rule="evenodd" class="a" d="m113.6 29.2q1.3 0 2.4-0.4 1.2-0.5 2.1-1.4 0.9-0.9 1.4-2.1 0.4-1.1 0.4-2.4v-4.1q0-1.3-0.4-2.4-0.5-1.2-1.4-2.1-0.9-0.9-2.1-1.4-1.1-0.4-2.4-0.4h-4.4q-1.3 0-2.4 0.4-1.2 0.5-2.1 1.4-0.9 0.9-1.3 2.1-0.5 1.1-0.5 2.4v4.1q0 1.3 0.5 2.4 0.4 1.2 1.3 2.1 0.9 0.9 2.1 1.4 1.1 0.4 2.4 0.4z"/><path fill-rule="evenodd" class="a" d="m257.1 0.2c0.7 0 1.5 0.3 2 0.9 0.5 0.5 0.8 1.3 0.8 2 0 0.8-0.3 1.5-0.8 2.1-0.6 0.5-1.3 0.8-2.1 0.8q-0.6 0-1.1-0.2-0.6-0.2-1-0.6-0.4-0.4-0.7-1-0.2-0.5-0.2-1.1 0-0.6 0.2-1.1 0.3-0.6 0.7-1 0.4-0.4 1-0.6 0.5-0.2 1.1-0.2zm0 0.6q-0.4 0-0.9 0.2-0.4 0.2-0.7 0.5-0.3 0.3-0.5 0.7-0.1 0.5-0.1 0.9 0 0.5 0.1 0.9 0.2 0.4 0.5 0.7 0.3 0.4 0.8 0.5 0.4 0.2 0.8 0.2 0.5 0 0.9-0.2 0.4-0.1 0.7-0.5 0.3-0.3 0.5-0.7 0.2-0.4 0.1-0.9 0.1-0.4-0.1-0.9-0.2-0.4-0.5-0.7-0.3-0.4-0.8-0.5-0.4-0.2-0.9-0.2zm-0.4 3.8h-0.7v-2.9q0.2 0 0.3 0 0.2 0 0.3 0 0.1-0.1 0.3-0.1 0.1 0 0.2 0 0.2 0 0.3 0 0.1 0 0.3 0.1 0.1 0 0.2 0 0.1 0.1 0.2 0.2 0.1 0 0.2 0.1 0 0 0.1 0.1 0 0.1 0 0.2 0 0.1 0 0.2 0 0.1 0 0.2-0.1 0.1-0.1 0.2-0.1 0.1-0.2 0.2-0.1 0-0.3 0.1c0.3 0 0.5 0.3 0.5 0.7q0.1 0.1 0.1 0.1 0 0.1 0 0.2 0.1 0.1 0.1 0.2 0 0.1 0.1 0.2h-0.7q-0.1-0.1-0.1-0.2-0.1-0.1-0.1-0.2 0-0.1 0-0.2-0.1 0-0.1-0.1 0-0.5-0.6-0.5h-0.3zm0-1.6h0.3c0.4 0 0.7-0.1 0.7-0.4q0-0.5-0.6-0.5-0.1 0-0.1 0-0.1 0-0.1 0-0.1 0-0.1 0 0 0-0.1 0.1z"/></svg>